<svg width="159" height="49" viewBox="0 0 159 49" fill="none" xmlns="http://www.w3.org/2000/svg">
<path d="M152.875 6.8811C151.219 5.59868 148.903 5.99106 147.697 7.752L130.48 32.9411L120.996 22.6721C119.599 21.0834 117.254 21.0069 115.761 22.4998C114.268 23.9832 114.192 26.4811 115.599 28.0602C115.599 28.0602 127.121 40.8461 128.777 42.1286C130.433 43.411 132.749 43.0186 133.954 41.2577L153.698 12.384C154.904 10.6135 154.531 8.15395 152.875 6.8811Z" fill="#615D6C"/>
<path d="M21.2812 12.1875C21.75 12.1875 22.1406 12.3594 22.4531 12.7031C22.7656 13.0156 22.9219 13.3906 22.9219 13.8281C22.9219 14.2656 22.7656 14.6562 22.4531 15C22.1406 15.3125 21.75 15.4688 21.2812 15.4688H13.4531V37.4531C13.4531 37.9219 13.2812 38.3281 12.9375 38.6719C12.625 39.0156 12.2188 39.1875 11.7188 39.1875C11.25 39.1875 10.8438 39.0156 10.5 38.6719C10.1562 38.3281 9.98438 37.9219 9.98438 37.4531V15.4688H2.15625C1.71875 15.4688 1.32812 15.3125 0.984375 15C0.671875 14.6875 0.515625 14.2969 0.515625 13.8281C0.515625 13.3906 0.671875 13.0156 0.984375 12.7031C1.29688 12.3594 1.6875 12.1875 2.15625 12.1875H21.2812ZM35.1094 19.0312C38.0781 19.0312 40.4688 19.9688 42.2812 21.8438C44.0938 23.75 44.9688 26.2031 44.9062 29.2031C44.9062 32.2344 44.0312 34.6875 42.2812 36.5625C40.4688 38.4375 38.0781 39.375 35.1094 39.375C32.1094 39.375 29.7344 38.4375 27.9844 36.5625C26.1719 34.6875 25.2656 32.2344 25.2656 29.2031C25.2656 26.1406 26.1719 23.6875 27.9844 21.8438C29.7344 19.9688 32.1094 19.0312 35.1094 19.0312ZM30.7969 34.6406C31.4219 35.1719 32.1094 35.5625 32.8594 35.8125C33.6406 36.0625 34.3906 36.1875 35.1094 36.1875C35.8281 36.1875 36.5625 36.0625 37.3125 35.8125C38.0625 35.5625 38.75 35.1562 39.375 34.5938C40.75 33.3438 41.4375 31.5312 41.4375 29.1562C41.4375 26.8438 40.75 25.0469 39.375 23.7656C38.2188 22.7031 36.7969 22.1875 35.1094 22.2188C32.3281 22.2188 30.4062 23.4688 29.3438 25.9688C28.9688 26.875 28.7812 27.9531 28.7812 29.2031C28.7812 30.4531 28.9688 31.5312 29.3438 32.4375C29.7188 33.3438 30.2031 34.0781 30.7969 34.6406ZM59.9062 12.1875C64.1875 12.1875 67.5938 13.625 70.125 16.5C71.25 17.75 72.0781 19.1719 72.6094 20.7656C73.1719 22.3594 73.4531 23.9688 73.4531 25.5938C73.4531 27.2188 73.1719 28.8281 72.6094 30.4219C72.0781 32.0156 71.25 33.4375 70.125 34.6875C67.5938 37.5625 64.1875 39 59.9062 39H52.1719C51.7031 39 51.2969 38.8281 50.9531 38.4844C50.6094 38.1406 50.4375 37.7344 50.4375 37.2656V13.9688C50.4375 13.5 50.6094 13.0938 50.9531 12.75C51.2969 12.375 51.7031 12.1875 52.1719 12.1875H59.9062ZM59.4844 35.7188C62.6719 35.7188 65.2344 34.7812 67.1719 32.9062C69.0781 31.0312 70.0312 28.5938 70.0312 25.5938C70.0312 22.5938 69.0781 20.1562 67.1719 18.2812C65.2344 16.4062 62.6719 15.4688 59.4844 15.4688H53.9531V35.7188H59.4844ZM87.1875 19.0312C90.1562 19.0312 92.5469 19.9688 94.3594 21.8438C96.1719 23.75 97.0469 26.2031 96.9844 29.2031C96.9844 32.2344 96.1094 34.6875 94.3594 36.5625C92.5469 38.4375 90.1562 39.375 87.1875 39.375C84.1875 39.375 81.8125 38.4375 80.0625 36.5625C78.25 34.6875 77.3438 32.2344 77.3438 29.2031C77.3438 26.1406 78.25 23.6875 80.0625 21.8438C81.8125 19.9688 84.1875 19.0312 87.1875 19.0312ZM82.875 34.6406C83.5 35.1719 84.1875 35.5625 84.9375 35.8125C85.7188 36.0625 86.4688 36.1875 87.1875 36.1875C87.9062 36.1875 88.6406 36.0625 89.3906 35.8125C90.1406 35.5625 90.8281 35.1562 91.4531 34.5938C92.8281 33.3438 93.5156 31.5312 93.5156 29.1562C93.5156 26.8438 92.8281 25.0469 91.4531 23.7656C90.2969 22.7031 88.875 22.1875 87.1875 22.2188C84.4062 22.2188 82.4844 23.4688 81.4219 25.9688C81.0469 26.875 80.8594 27.9531 80.8594 29.2031C80.8594 30.4531 81.0469 31.5312 81.4219 32.4375C81.7969 33.3438 82.2812 34.0781 82.875 34.6406Z" fill="#615D6C"/>
</svg>
